<svg id="Layer_1" enable-background="new 0 0 512.103 512.103" height="512" viewBox="0 0 512.103 512.103" width="512" xmlns="http://www.w3.org/2000/svg"><path d="m512.081 276.067c-.091-2.209-.61-5.004-2.387-7.731l-123.526-190.821c-9.438-14.58-26.999-21.169-43.7-16.398-16.749 4.786-28.446 20.294-28.446 37.712v25.49c0 8.284 6.716 15 15 15s15-6.716 15-15v-25.49c0-4.095 2.75-7.742 6.688-8.867 3.925-1.122 8.055.427 10.275 3.855l108.539 167.669h-143.566c-31.403 0-56.951 25.548-56.951 56.951v3.198c-6.751-2.298-17.497-2.917-25.91-.025v-3.174c0-31.403-25.548-56.951-56.951-56.951h-143.568l108.54-167.669c2.219-3.428 6.347-4.975 10.273-3.855 3.938 1.125 6.688 4.771 6.688 8.867v25.49c0 8.284 6.716 15 15 15s15-6.716 15-15v-25.49c0-17.419-11.698-32.927-28.447-37.712-16.7-4.77-34.261 1.819-43.699 16.398l-123.525 190.822c-1.25 2.078-2.409 4.692-2.408 8.151v86.556c0 32.811 12.922 57.069 38.408 72.1 19.829 11.694 46.823 17.378 82.528 17.378h1.225c35.705 0 62.699-5.685 82.528-17.378 25.485-15.031 38.408-39.289 38.408-72.1v-4.593c1.907-3.224 6.198-8.854 12.917-8.854 6.737 0 11.064 5.641 12.993 8.879v4.568c0 32.811 12.922 57.069 38.408 72.1 19.828 11.694 46.823 17.378 82.528 17.378h1.225c35.705 0 62.7-5.685 82.528-17.378 25.485-15.031 38.408-39.289 38.408-72.1v-86.556c-.001-.142-.019-.279-.023-.42zm-298.985 86.976c0 27.692-10.336 59.478-90.936 59.478h-1.225c-80.6 0-90.936-31.786-90.936-59.478v-71.556h156.145c14.861 0 26.951 12.09 26.951 26.951v44.605zm269.007 0c0 27.692-10.336 59.478-90.936 59.478h-1.225c-80.6 0-90.936-31.786-90.936-59.478v-44.604c0-14.861 12.09-26.951 26.951-26.951h156.145v71.555z"/></svg>