<svg id="Layer_1" height="512" viewBox="0 0 512 512" width="512" xmlns="http://www.w3.org/2000/svg" data-name="Layer 1"><path d="m242.51 476.83a6 6 0 0 0 6-6v-9.78a6 6 0 1 0 -12 0v9.78a6 6 0 0 0 6 6z"/><path d="m215.52 476.83a6 6 0 0 0 6-6v-9.78a6 6 0 0 0 -12 0v9.78a6 6 0 0 0 6 6z"/><path d="m188.54 476.83a6 6 0 0 0 6-6v-9.78a6 6 0 0 0 -12 0v9.78a6 6 0 0 0 6 6z"/><path d="m161.56 455.05a6 6 0 0 0 -6 6v9.78a6 6 0 0 0 12 0v-9.78a6 6 0 0 0 -6-6z"/><path d="m134.57 455.05a6 6 0 0 0 -6 6v9.78a6 6 0 0 0 12 0v-9.78a6 6 0 0 0 -6-6z"/><path d="m269.49 476.83a6 6 0 0 0 6-6v-9.78a6 6 0 1 0 -12 0v9.78a6 6 0 0 0 6 6z"/><path d="m296.48 476.83a6 6 0 0 0 6-6v-9.78a6 6 0 1 0 -12 0v9.78a6 6 0 0 0 6 6z"/><path d="m323.46 476.83a6 6 0 0 0 6-6v-9.78a6 6 0 0 0 -12 0v9.78a6 6 0 0 0 6 6z"/><path d="m350.44 476.83a6 6 0 0 0 6-6v-9.78a6 6 0 0 0 -12 0v9.78a6 6 0 0 0 6 6z"/><path d="m377.43 476.83a6 6 0 0 0 6-6v-9.78a6 6 0 0 0 -12 0v9.78a6 6 0 0 0 6 6z"/><path d="m498.87 445.529a5.986 5.986 0 0 0 2.76-5.85l-25.7-198.279a499.988 499.988 0 0 0 -9.655-52.342c-2.714-11.353-5.872-22.743-9.382-33.849a129.657 129.657 0 0 0 -35.963-56.532v-2.287a17.759 17.759 0 0 0 -10.641-16.275l-9.579-4.2a360.028 360.028 0 0 0 -71.02-22.707v-32.208a5.973 5.973 0 0 0 -6-5.99v-.01l-135.38.01a5.973 5.973 0 0 0 -6 5.99v32.2a361.246 361.246 0 0 0 -71.019 22.715l-9.573 4.2a17.762 17.762 0 0 0 -10.648 16.275v2.29a129.4 129.4 0 0 0 -35.961 56.52c-3.5 11.086-6.662 22.477-9.394 33.857a502.509 502.509 0 0 0 -9.645 52.343l-25.7 198.279a6 6 0 0 0 4.361 6.556l-2.731 32.615a6 6 0 0 0 5.667 6.492l58.77 3.06c.106.006.211.008.315.008a6 6 0 0 0 5.894-4.894l6.162-32.863.128.007c.116.007.23.01.345.01a6 6 0 0 0 5.719-4.2l1.5-4.771a19.76 19.76 0 0 0 7.376 4.91v44.391a6 6 0 0 0 6 6h292.244a6 6 0 0 0 6-6v-44.391a19.768 19.768 0 0 0 7.376-4.91l1.5 4.772a6 6 0 0 0 5.721 4.2c.115 0 .233 0 .35-.01l1.765-.1 6.18 32.958a6 6 0 0 0 5.894 4.894c.1 0 .21 0 .315-.008l58.77-3.06a6 6 0 0 0 5.667-6.492zm-427.05 30.617-47.344-2.466 2.224-26.619 50.026 2.893zm19.25-57.166-6.112 19.433-61.858-3.582 7.527-58.068 60.445 3.5zm0-51.67v.933l-58.9-3.41 10.114-78.027 48.785 2.826v50.208a19.665 19.665 0 0 0 5.594 13.739 19.647 19.647 0 0 0 -5.593 13.731zm.071-89.7-47.309-2.739 4.138-31.93c2.011-15.487 4.8-31 8.277-46.2l34.823 2.017v52.792a19.647 19.647 0 0 0 5.594 13.731 19.663 19.663 0 0 0 -5.523 12.331zm.328-90.847-32.346-1.873c2.243-8.776 4.727-17.519 7.429-26.076a117.155 117.155 0 0 1 24.518-43.066v47.5a19.665 19.665 0 0 0 5.594 13.739 19.694 19.694 0 0 0 -5.195 9.778zm214.821-159.763-50.29 39.361-50.29-39.361zm11.4 6.315v35.643l-55.69 40.354v-32.412zm-123.38 0 55.69 43.585v32.41l-55.69-40.352zm-91.24 63.075a5.764 5.764 0 0 1 3.459-5.285l9.58-4.2a349.24 349.24 0 0 1 66.2-21.429v6.544a6 6 0 0 0 2.48 4.858l65.211 47.254v46.858h-139.19a7.749 7.749 0 0 1 -7.74-7.74zm0 94.33a7.744 7.744 0 0 1 7.74-7.73h139.19v76.29h-139.19a7.744 7.744 0 0 1 -7.74-7.73zm0 88.3a7.749 7.749 0 0 1 7.74-7.74h139.19v76.3h-139.19a7.749 7.749 0 0 1 -7.74-7.74zm293.05 205.98h-280.24v-37.13h36.453a6 6 0 0 0 0-12h-41.523a3.519 3.519 0 0 1 -.356-.013l-.181-.014a7.738 7.738 0 0 1 -7.2-7.713v-60.82a7.744 7.744 0 0 1 7.74-7.73h139.187v76.29h-68.333a6 6 0 0 0 0 12h214.453zm12.81-56.87a7.738 7.738 0 0 1 -7.2 7.713l-.181.014a3.519 3.519 0 0 1 -.356.013h-139.193v-76.29h139.19a7.744 7.744 0 0 1 7.74 7.73zm0-88.29a7.749 7.749 0 0 1 -7.74 7.74h-139.19v-76.3h139.19a7.749 7.749 0 0 1 7.74 7.74zm0-88.29a7.744 7.744 0 0 1 -7.74 7.73h-139.19v-76.29h139.19a7.744 7.744 0 0 1 7.74 7.73zm0-88.3a7.749 7.749 0 0 1 -7.74 7.74h-139.19v-46.858l65.21-47.254a6 6 0 0 0 2.48-4.858v-6.535a348.065 348.065 0 0 1 66.2 21.42l9.587 4.2a5.762 5.762 0 0 1 3.452 5.282zm12 0v-47.5a117.443 117.443 0 0 1 24.519 43.069c2.708 8.566 5.189 17.3 7.424 26.061l-32.344 1.876a19.688 19.688 0 0 0 -5.193-9.766 19.665 19.665 0 0 0 5.594-13.74zm0 88.3v-52.8l34.815-2.019c3.485 15.195 6.274 30.713 8.285 46.21l4.137 31.922-47.309 2.737a19.662 19.662 0 0 0 -5.523-12.317 19.644 19.644 0 0 0 5.595-13.733zm-5.6 102.029a19.661 19.661 0 0 0 5.6-13.739v-50.222l48.784-2.825 10.114 78.033-58.9 3.407v-.923a19.644 19.644 0 0 0 -5.593-13.731zm11.705 84.83-6.11-19.417v-38.738l60.445-3.5 7.528 58.078zm14.8 37.737-4.928-26.286 50.036-2.891 2.237 26.711z"/></svg>