<?xml version="1.0" encoding="iso-8859-1"?>
<!-- Generator: Adobe Illustrator 16.0.0, SVG Export Plug-In . SVG Version: 6.00 Build 0)  -->
<!DOCTYPE svg PUBLIC "-//W3C//DTD SVG 1.1//EN" "http://www.w3.org/Graphics/SVG/1.1/DTD/svg11.dtd">
<svg version="1.1" id="Capa_1" xmlns="http://www.w3.org/2000/svg" xmlns:xlink="http://www.w3.org/1999/xlink" x="0px" y="0px"
	 width="598.769px" height="598.77px" viewBox="0 0 598.769 598.77" style="enable-background:new 0 0 598.769 598.77;"
	 xml:space="preserve">
<g>
	<g>
		<path d="M161.196,253.695c16.274,6.884,33.538,10.374,51.31,10.374s35.035-3.49,51.31-10.374
			c15.698-6.64,29.787-16.136,41.876-28.225c12.089-12.089,21.585-26.179,28.225-41.876c6.884-16.275,10.374-33.538,10.374-51.309
			c0-17.772-3.49-35.035-10.374-51.31c-6.64-15.698-16.136-29.787-28.225-41.876c-12.089-12.089-26.178-21.585-41.876-28.225
			C247.541,3.99,230.278,0.5,212.506,0.5s-35.035,3.49-51.31,10.374c-15.698,6.64-29.787,16.136-41.876,28.225
			c-12.089,12.089-21.585,26.178-28.224,41.876c-6.884,16.275-10.374,33.538-10.374,51.31c0,17.771,3.49,35.035,10.374,51.309
			c6.639,15.698,16.135,29.788,28.224,41.876C131.409,237.559,145.499,247.055,161.196,253.695z M212.506,43.34
			c49.123,0,88.945,39.822,88.945,88.945c0,49.123-39.822,88.944-88.945,88.944s-88.944-39.822-88.944-88.944
			C123.562,83.162,163.383,43.34,212.506,43.34z"/>
		<path d="M212.506,264.569c-17.84,0-35.168-3.503-51.504-10.414c-15.757-6.665-29.9-16.197-42.035-28.332
			c-12.135-12.134-21.667-26.277-28.331-42.035c-6.91-16.336-10.414-33.664-10.414-51.504c0-17.839,3.503-35.167,10.414-51.504
			c6.664-15.757,16.195-29.899,28.331-42.035c12.135-12.135,26.278-21.667,42.035-28.332C177.338,3.503,194.667,0,212.506,0
			s35.168,3.503,51.504,10.414c15.757,6.664,29.899,16.197,42.035,28.332c12.135,12.134,21.667,26.277,28.332,42.035
			c6.909,16.336,10.413,33.665,10.413,51.504c0,17.839-3.504,35.167-10.413,51.504c-6.666,15.758-16.198,29.901-28.332,42.035
			c-12.135,12.135-26.278,21.667-42.035,28.332C247.674,261.065,230.346,264.569,212.506,264.569z M212.506,1
			c-17.705,0-34.902,3.477-51.115,10.334c-15.638,6.614-29.674,16.075-41.718,28.118c-12.044,12.044-21.504,26.08-28.117,41.717
			c-6.857,16.213-10.334,33.41-10.334,51.115c0,17.705,3.477,34.902,10.334,51.114c6.614,15.639,16.074,29.675,28.117,41.718
			c12.043,12.043,26.08,21.503,41.718,28.118c16.212,6.857,33.41,10.334,51.115,10.334s34.902-3.477,51.115-10.334
			c15.638-6.615,29.674-16.075,41.718-28.118c12.043-12.042,21.503-26.079,28.117-41.718c6.858-16.213,10.335-33.41,10.335-51.114
			c0-17.705-3.477-34.902-10.335-51.115c-6.614-15.639-16.074-29.674-28.117-41.717c-12.044-12.044-26.08-21.504-41.718-28.118
			C247.408,4.477,230.211,1,212.506,1z M212.506,221.729c-49.32,0-89.444-40.125-89.444-89.444s40.125-89.445,89.444-89.445
			s89.445,40.125,89.445,89.445S261.826,221.729,212.506,221.729z M212.506,43.84c-48.769,0-88.444,39.676-88.444,88.445
			s39.676,88.444,88.444,88.444s88.445-39.676,88.445-88.444S261.274,43.84,212.506,43.84z"/>
	</g>
	<g>
		<path d="M586.081,404.607c-7.023-16.604-17.067-31.506-29.855-44.293c-12.787-12.789-27.689-22.834-44.294-29.855
			c-17.213-7.281-35.472-10.973-54.271-10.973s-37.059,3.693-54.271,10.973c-6.161,2.605-12.086,5.629-17.758,9.053
			c-2.294-2.627-4.679-5.186-7.162-7.67c-14.042-14.043-30.405-25.072-48.636-32.782c-18.896-7.993-38.944-12.045-59.586-12.045
			H154.764c-20.642,0-40.69,4.053-59.586,12.045c-18.23,7.71-34.593,18.739-48.635,32.782
			c-14.042,14.041-25.071,30.404-32.781,48.635C5.769,399.373,1.716,419.42,1.716,440.062v73.625
			c0,34.471,28.044,62.516,62.514,62.516h296.552c6.157,0,12.108-0.9,17.733-2.566c7.775,5.369,16.084,9.943,24.874,13.662
			c17.213,7.279,35.473,10.971,54.271,10.971s37.059-3.691,54.271-10.971c16.604-7.023,31.507-17.068,44.294-29.855
			c12.789-12.789,22.833-27.691,29.855-44.295c7.28-17.213,10.972-35.473,10.972-54.271S593.362,421.82,586.081,404.607z
			 M457.661,555.43c-15.448,0-30.046-3.633-42.993-10.084c-6.449-3.213-12.487-7.123-18.017-11.637
			c-6.143-5.014-11.659-10.766-16.408-17.127c-12.019-16.098-19.135-36.068-19.135-57.703c0-18.727,5.338-36.205,14.566-51.008
			c4.422-7.092,9.737-13.57,15.791-19.273c5.317-5.01,11.202-9.422,17.55-13.133c14.285-8.348,30.905-13.137,48.646-13.137
			c53.324,0,96.552,43.227,96.552,96.551S510.985,555.43,457.661,555.43z M64.23,533.363c-10.866,0-19.674-8.809-19.674-19.674
			v-73.627c0-60.865,49.342-110.207,110.208-110.207h115.484c32.859,0,62.354,14.385,82.545,37.195
			c-9.821,11.193-17.729,23.789-23.553,37.557c-7.28,17.213-10.972,35.473-10.972,54.271s3.69,37.059,10.972,54.271
			c2.984,7.057,6.521,13.803,10.576,20.213H64.23z"/>
		<path d="M457.662,598.77c-18.865,0-37.19-3.704-54.466-11.01c-8.677-3.671-17.008-8.237-24.768-13.576
			c-5.725,1.672-11.66,2.52-17.646,2.52H64.23c-34.746,0-63.014-28.269-63.014-63.016v-73.625c0-20.709,4.066-40.822,12.085-59.78
			c7.735-18.29,18.8-34.706,32.888-48.794c14.088-14.089,30.505-25.154,48.794-32.889c18.958-8.019,39.072-12.084,59.781-12.084
			h115.483c20.712,0,40.825,4.066,59.78,12.084c18.291,7.735,34.707,18.8,48.795,32.889c2.35,2.351,4.672,4.831,6.909,7.38
			c5.578-3.345,11.451-6.328,17.463-8.87c17.278-7.307,35.604-11.012,54.466-11.012c18.866,0,37.191,3.705,54.465,11.012
			c16.664,7.047,31.62,17.128,44.453,29.963c12.832,12.831,22.913,27.787,29.962,44.452c7.308,17.273,11.013,35.598,11.013,54.464
			s-3.705,37.191-11.011,54.466c-7.048,16.664-17.129,31.62-29.963,44.454c-12.833,12.833-27.789,22.914-44.453,29.962
			C494.852,595.065,476.528,598.77,457.662,598.77z M378.603,573.09l0.197,0.136c7.759,5.357,16.098,9.938,24.785,13.612
			c17.151,7.254,35.345,10.932,54.076,10.932s36.925-3.678,54.076-10.932c16.544-6.997,31.393-17.007,44.135-29.748
			c12.742-12.742,22.751-27.592,29.748-44.136c7.255-17.151,10.933-35.346,10.933-54.077s-3.679-36.925-10.934-54.075
			c-6.998-16.545-17.007-31.394-29.748-44.134c-12.742-12.743-27.591-22.752-44.135-29.748
			c-17.15-7.255-35.345-10.934-54.076-10.934c-18.728,0-36.922,3.679-54.077,10.934c-6.096,2.578-12.049,5.612-17.693,9.02
			l-0.359,0.217l-0.276-0.315c-2.307-2.642-4.709-5.214-7.139-7.646c-13.996-13.997-30.306-24.99-48.477-32.675
			c-18.832-7.966-38.814-12.005-59.392-12.005H154.764c-20.575,0-40.557,4.039-59.391,12.005
			c-18.17,7.684-34.48,18.678-48.477,32.675c-13.997,13.996-24.99,30.306-32.674,48.476c-7.966,18.835-12.006,38.817-12.006,59.392
			v73.625c0,34.195,27.819,62.016,62.014,62.016h296.552c5.97,0,11.888-0.856,17.592-2.546L378.603,573.09z M457.661,555.93
			c-15.177,0-29.717-3.41-43.216-10.137c-6.438-3.207-12.531-7.143-18.11-11.696c-6.184-5.048-11.732-10.84-16.492-17.216
			c-12.583-16.854-19.234-36.91-19.234-58.002c0-18.178,5.063-35.907,14.642-51.272c4.433-7.107,9.772-13.626,15.873-19.373
			c5.359-5.049,11.294-9.49,17.641-13.2c14.783-8.639,31.691-13.205,48.897-13.205c53.515,0,97.052,43.537,97.052,97.051
			S511.175,555.93,457.661,555.93z M457.661,362.828c-17.028,0-33.763,4.519-48.394,13.068c-6.28,3.672-12.154,8.067-17.459,13.065
			c-6.038,5.688-11.323,12.139-15.71,19.174c-9.479,15.206-14.49,32.753-14.49,50.743c0,20.874,6.582,40.725,19.035,57.404
			c4.711,6.31,10.203,12.043,16.324,17.038c5.521,4.508,11.552,8.402,17.923,11.577c13.359,6.656,27.749,10.031,42.771,10.031
			c52.963,0,96.052-43.088,96.052-96.051S510.624,362.828,457.661,362.828z M340.725,533.863H64.23
			c-11.124,0-20.174-9.05-20.174-20.174v-73.627c0-61.044,49.663-110.707,110.708-110.707h115.484
			c31.678,0,61.901,13.618,82.919,37.364l0.292,0.33l-0.29,0.331c-9.788,11.154-17.684,23.745-23.468,37.421
			c-7.255,17.151-10.933,35.346-10.933,54.077c0,18.734,3.678,36.928,10.932,54.077c2.949,6.973,6.495,13.749,10.539,20.14
			L340.725,533.863z M154.764,330.355c-60.493,0-109.708,49.215-109.708,109.707v73.627c0,10.572,8.602,19.174,19.174,19.174
			h274.682c-3.873-6.212-7.28-12.773-10.133-19.519c-7.306-17.272-11.011-35.597-11.011-54.466c0-18.866,3.705-37.191,11.011-54.466
			c5.77-13.64,13.623-26.206,23.347-37.359c-20.816-23.329-50.632-36.698-81.878-36.698H154.764z"/>
	</g>
	<g>
		<path d="M504.745,437.459h-25.664v-25.664c0-11.83-9.591-21.42-21.42-21.42c-11.83,0-21.42,9.59-21.42,21.42v25.664h-12.977
			h-12.688c-3.103,0-6.048,0.664-8.709,1.852c-7.487,3.338-12.711,10.84-12.711,19.568c0,8.73,5.227,16.236,12.72,19.572
			c2.659,1.184,5.601,1.848,8.7,1.848h12.72h12.944v25.664c0,11.83,9.59,21.42,21.42,21.42c11.829,0,21.42-9.59,21.42-21.42v-25.664
			h25.664c11.83,0,21.42-9.59,21.42-21.42S516.575,437.459,504.745,437.459z"/>
		<path d="M457.661,527.883c-12.087,0-21.92-9.833-21.92-21.92v-25.164h-25.164c-3.089,0-6.085-0.636-8.903-1.891
			c-7.907-3.521-13.017-11.383-13.017-20.029c0-8.643,5.105-16.502,13.008-20.025c2.817-1.257,5.815-1.895,8.912-1.895h25.164
			v-25.164c0-12.087,9.833-21.92,21.92-21.92s21.92,9.833,21.92,21.92v25.164h25.164c12.087,0,21.92,9.833,21.92,21.92
			s-9.833,21.92-21.92,21.92h-25.164v25.164C479.581,518.05,469.748,527.883,457.661,527.883z M410.577,437.959
			c-2.955,0-5.816,0.608-8.505,1.809c-7.542,3.361-12.415,10.863-12.415,19.111c0,8.252,4.876,15.756,12.423,19.115
			c2.69,1.197,5.549,1.805,8.497,1.805h26.164v26.164c0,11.535,9.385,20.92,20.92,20.92s20.92-9.385,20.92-20.92v-26.164h26.164
			c11.535,0,20.92-9.385,20.92-20.92s-9.385-20.92-20.92-20.92h-26.164v-26.164c0-11.535-9.385-20.92-20.92-20.92
			s-20.92,9.385-20.92,20.92v26.164H410.577z"/>
	</g>
</g>
<g>
</g>
<g>
</g>
<g>
</g>
<g>
</g>
<g>
</g>
<g>
</g>
<g>
</g>
<g>
</g>
<g>
</g>
<g>
</g>
<g>
</g>
<g>
</g>
<g>
</g>
<g>
</g>
<g>
</g>
</svg>
